<?xml version="1.0" encoding="UTF-8"?>
<svg id="Layer_2" data-name="Layer 2" xmlns="http://www.w3.org/2000/svg" viewBox="0 0 3.01 3.19">
  <defs>
    <style>
      .cls-1 {
        fill: #fff;
      }
    </style>
  </defs>
  <g id="Layer_1-2" data-name="Layer 1">
    <path class="cls-1" d="m.94,0h1.12c.08,0,.14.06.14.14h0v1.03h.67c.08,0,.14.06.14.14,0,.04-.01.07-.04.1l-1.37,1.37c-.05.05-.14.05-.19,0h0S.04,1.4.04,1.4c-.05-.05-.05-.14,0-.19.03-.03.06-.04.1-.04h.67V.14c0-.08.06-.14.14-.14h0ZM.14,3.19H.14C.06,3.19,0,3.13,0,3.06s.06-.14.14-.14h2.74c.08,0,.14.06.14.14s-.06.14-.14.14H.14ZM1.93.28h-.85v1.02h0c0,.08-.06.14-.14.14h-.47l1.04,1.04,1.04-1.04h-.48c-.08,0-.14-.06-.14-.14V.28h0Z"/>
  </g>
</svg>