<?xml version="1.0" encoding="UTF-8"?>
<svg id="Layer_2" data-name="Layer 2" xmlns="http://www.w3.org/2000/svg" viewBox="0 0 153.34 120.85">
  <defs>
    <style>
      .cls-1 {
        fill: #fff;
      }
    </style>
  </defs>
  <g id="Layer_1-2" data-name="Layer 1">
    <g>
      <g>
        <path class="cls-1" d="m13.94,96.48c-4.65-8.05-9.29-16.09-13.94-24.14C13.93,48.24,27.86,24.13,41.79.03c9.28-.01,18.57-.02,27.85-.03,4.67,8.08,9.33,16.16,14,24.24-9.33,0-18.66,0-27.99,0-13.9,24.08-27.8,48.16-41.71,72.24Z"/>
        <path class="cls-1" d="m97.59.03h27.71c-9.25,16.11-18.49,32.22-27.74,48.34-9.29,0-18.59,0-27.88,0C78.99,32.26,88.29,16.14,97.59.03Z"/>
      </g>
      <g>
        <path class="cls-1" d="m139.41,24.37c4.65,8.05,9.29,16.09,13.94,24.14-13.93,24.1-27.86,48.2-41.79,72.31-9.28.01-18.57.02-27.85.03-4.67-8.08-9.33-16.16-14-24.24,9.33,0,18.66,0,27.99,0,13.9-24.08,27.8-48.16,41.71-72.24Z"/>
        <path class="cls-1" d="m55.75,120.81h-27.71c9.25-16.11,18.49-32.22,27.74-48.34,9.29,0,18.59,0,27.88,0-9.3,16.11-18.6,32.22-27.91,48.34Z"/>
      </g>
    </g>
  </g>
</svg>