<?xml version="1.0" encoding="UTF-8"?>
<svg id="Layer_2" data-name="Layer 2" xmlns="http://www.w3.org/2000/svg" viewBox="0 0 442.49 120.85">
  <defs>
    <style>
      .cls-1 {
        fill: #fff;
      }
    </style>
  </defs>
  <g id="Layer_1-2" data-name="Layer 1">
    <g>
      <g>
        <path class="cls-1" d="m13.94,96.48c-4.65-8.05-9.29-16.09-13.94-24.14C13.93,48.24,27.86,24.13,41.79.03c9.28-.01,18.57-.02,27.85-.03,4.67,8.08,9.33,16.16,14,24.24-9.33,0-18.66,0-27.99,0-13.9,24.08-27.8,48.16-41.71,72.24Z"/>
        <path class="cls-1" d="m97.59.03h27.71c-9.25,16.11-18.49,32.22-27.74,48.34-9.29,0-18.59,0-27.88,0C78.99,32.26,88.29,16.14,97.59.03Z"/>
      </g>
      <g>
        <path class="cls-1" d="m139.41,24.37c4.65,8.05,9.29,16.09,13.94,24.14-13.93,24.1-27.86,48.2-41.79,72.31-9.28.01-18.57.02-27.85.03-4.67-8.08-9.33-16.16-14-24.24,9.33,0,18.66,0,27.99,0,13.9-24.08,27.8-48.16,41.71-72.24Z"/>
        <path class="cls-1" d="m55.75,120.81h-27.71c9.25-16.11,18.49-32.22,27.74-48.34,9.29,0,18.59,0,27.88,0-9.3,16.11-18.6,32.22-27.91,48.34Z"/>
      </g>
    </g>
    <g>
      <path class="cls-1" d="m186.96,16V.94c0-.42-.34-.76-.76-.76-2.72,0-5.44,0-8.16,0-.42,0-.76.34-.76.76v15.06c0,.42.34.76.76.76,2.72,0,5.44,0,8.16,0,.42,0,.76-.34.76-.76Z"/>
      <path class="cls-1" d="m217.35.92v46.86c0,.41-.33.74-.74.74-2.73,0-5.47,0-8.2,0-.41,0-.74-.33-.74-.74,0-5.95,0-11.91,0-17.86,0-.41-.33-.74-.74-.74-6.42,0-12.83,0-19.25,0-.41,0-.74.33-.74.74,0,5.95,0,11.91,0,17.86,0,.41-.33.74-.74.74h-8.2c-.41,0-.74-.33-.74-.74v-27.53c0-.41.33-.74.74-.74h28.92c.41.02.74-.31.74-.72,0-5.96,0-11.92,0-17.88,0-.41.33-.74.74-.74h8.2c.41,0,.74.33.74.74Z"/>
      <path class="cls-1" d="m276.8,16.76c2.95,0,5.91,0,8.86,0,.41,0,.75-.34.75-.75V.93c0-.41-.34-.75-.75-.75h-8.86c-.41,0-.75.34-.75.75v15.09c0,.41.34.75.75.75Z"/>
      <path class="cls-1" d="m276.8,19.52c2.95,0,5.91,0,8.86,0,.41,0,.75.34.75.75v27.49c0,.41-.34.75-.75.75h-8.86c-.41,0-.75-.34-.75-.75v-27.5c0-.41.34-.75.75-.75Z"/>
      <path class="cls-1" d="m404.97,16.46c.14.19.36.31.6.31,1.49,0,3,.01,4.51,0,1.35,0,2.7,0,4.04-.02.41,0,.74-.34.73-.75,0-.54,0-1.08,0-1.62,0-.51,0-1.01,0-1.52,0-.16-.05-.31-.14-.43-1.45-1.99-2.91-4-4.36-6.02-1.42-1.98-2.83-3.95-4.23-5.91-.14-.2-.37-.31-.61-.31-1.49,0-2.98,0-4.48,0-1.36,0-2.71,0-4.06,0-.41,0-.74.32-.74.73,0,1.04-.01,2.09-.02,3.14,0,.16.05.32.15.46,1.45,2.01,2.91,4.02,4.36,6.03,1.42,1.97,2.84,3.94,4.26,5.91Z"/>
      <path class="cls-1" d="m433.21.18c2.83-.01,5.67-.01,8.53,0,.4,0,.73.33.74.73v1.33c0,.61.01,1.23.02,1.83,0,.15-.05.3-.13.43-5.96,8.56-11.74,15.93-17.7,24.49-.09.12-.13.27-.13.42,0,3.02,0,6.05,0,9.09,0,3.09.01,6.18.03,9.25,0,.42-.34.77-.77.77h-8.85c-.42,0-.77-.34-.77-.76-.01-3.42-.02-6.85-.02-10.29,0-3.39,0-6.76.02-10.12,0-.15.05-.3.13-.42,3.04-4.42,6.09-8.85,9.17-13.28,3.04-4.4,6.09-8.77,9.13-13.13.14-.2.37-.32.62-.32Z"/>
      <path class="cls-1" d="m191.92,106.96c-.37.81-1.18,1.32-2.07,1.31-.77,0-1.55-.01-2.33-.02-1.24,0-2.46,0-3.67.02-.78.01-1.5-.38-1.92-1.03-.11-.17-.22-.35-.4-.65,0,0-.11-.32-.03-.72.11-.53,3.53-7.75,8.3-17.54,2.3-5.11,4.6-10.22,6.89-15.33.12-.27.39-.45.69-.45,2.62,0,5.24,0,7.86,0,.3,0,.57.18.69.45l18.99,44.09.06.3c0,.84.02,1.68,0,2.51,0,.42-.35.75-.77.75h-44.38c-.26,0-.5-.14-.63-.37-.93-1.6-.88-1.54-1.82-3.13-.14-.24-.15-.55,0-.8.86-1.51,1.73-3.03,2.57-4.56.26-.48.76-.77,1.31-.77h28.87c.53,0,.88-.54.67-1.02-3.07-7.16-6.14-14.33-9.21-21.49-.25-.59-1.08-.59-1.34-.01-2.78,6.15-5.56,12.3-8.33,18.45Z"/>
      <path class="cls-1" d="m281.38,120.67c2.72,0,5.44,0,8.16,0,.4,0,.73-.33.73-.73,0-5.01,0-10.02,0-15.03,0-.4-.33-.73-.73-.73-2.72,0-5.44,0-8.16,0-.4,0-.73.33-.73.73v15.02c0,.4.33.73.73.73Z"/>
      <path class="cls-1" d="m280.66,76.45c0-1.02,0-2.08,0-3.12,0-.42.33-.76.75-.76,2.84-.02,5.66,0,8.5-.01.23,0,.45.11.59.29,4.31,5.61,8.63,11.22,12.94,16.83.3.39.88.39,1.18,0,4.31-5.61,8.61-11.21,12.92-16.82.14-.18.36-.29.58-.29,2.92-.01,5.69,0,8.52-.01.41,0,.75.33.75.74v46.63c0,.41-.33.74-.74.74h-8.13c-.42,0-.76-.34-.76-.76,0-9.33,0-18.66,0-27.98,0-.72-.9-1.03-1.34-.46-3.59,4.59-7.19,9.19-10.78,13.78-.15.19-.39.31-.64.31-.77,0-1.22,0-1.97,0-.24,0-.46-.11-.6-.3-7.2-9.45-14.41-18.91-21.61-28.36-.1-.13-.15-.28-.15-.44Z"/>
      <path class="cls-1" d="m338.42,82.17h34.98c.4-.01.73-.34.73-.74,0-2.72-.01-5.43-.02-8.15,0-.4-.33-.73-.73-.73h-34.97c-.4,0-.73.33-.73.73v8.16c0,.4.33.73.73.73Z"/>
      <path class="cls-1" d="m338.42,91.8h32.22c.4,0,.73.33.73.73v8.16c0,.4-.33.73-.73.73-10.74,0-21.48,0-32.22,0-.4,0-.73-.33-.73-.73v-8.16c0-.4.33-.73.73-.73Z"/>
      <path class="cls-1" d="m338.42,111.06c11.66,0,23.32,0,34.98-.01.4,0,.73.33.73.73,0,2.72-.01,5.44-.02,8.16,0,.4-.33.73-.73.73h-34.96c-.4,0-.73-.33-.73-.73v-8.15c0-.4.33-.73.73-.73Z"/>
      <path class="cls-1" d="m382.41,111.04c7.47,0,14.93,0,22.4.01.52,0,1.03-.11,1.5-.35,1.55-.78,4.07-2.36,6.1-5.26.7-1,2.73-3.98,2.91-8.29.2-4.66-1.79-9.85-6.03-12.83-1.46-1.03-2.91-1.59-4.03-1.91-.56-.16-1.13-.23-1.71-.23-7.04,0-14.09,0-21.13,0-.41,0-.75-.34-.75-.75v-8.13c0-.41.34-.75.75-.75h24.85c.34,0,.68.04,1,.13.98.27,2.22.69,3.6,1.34,1.27.6,5.03,2.52,8.31,6.63.7.88,2.56,3.34,3.89,7.03.3.85,1.47,4.22,1.49,8.83.02,3.93-.8,6.94-1.24,8.34-.67,2.14-1.89,5.86-5.16,9.26-1.59,1.65-3.1,2.65-4.08,3.28-2.6,1.69-5.05,2.62-6.87,3.16-.28.08-.56.12-.85.12-8.32,0-16.64,0-24.96-.01-.41,0-.74-.33-.74-.74v-8.15c0-.41.33-.74.74-.74Z"/>
      <path class="cls-1" d="m296.82,38.85h22.61c.07,0,.14,0,.21-.03,1.39-.55,4.59-2.04,7.08-5.52,2.64-3.69,2.89-7.41,2.93-8.33.21-4.89-2-9.94-6.06-12.89-1.74-1.26-3.45-1.88-4.66-2.2-.05-.01-.11-.02-.16-.02-7.32,0-14.63-.01-21.95-.02-.41,0-.75-.34-.75-.75V.92c0-.41.33-.74.74-.74h25.32c.12.02.22.03.34.05.96.3,2.26.77,3.72,1.5,4.83,2.41,7.6,5.72,8.35,6.66.71.89,2.57,3.36,3.91,7.06.31.85,1.47,4.24,1.49,8.87.02,3.95-.81,6.98-1.25,8.38-.68,2.15-1.89,5.89-5.18,9.31-1.61,1.67-3.14,2.68-4.1,3.3-2.53,1.64-4.91,2.55-6.67,3.08-.29.09-.58.12-.88.12h-25.04c-.42,0-.76-.34-.76-.76v-8.17c0-.41.33-.75.75-.75Z"/>
      <path class="cls-1" d="m228.48,9.85h23.95c.09,0,.18,0,.26.03,1.43.47,2.38,1.15,2.93,1.61.35.29.78.65,1.2,1.25.25.35,1,1.45,1.05,3.04.04,1.38-.47,2.38-.79,3-.24.46-.75,1.43-1.84,2.28-.99.77-1.99,1.07-2.57,1.2-.06.01-.11.02-.16.02-8,0-16.01,0-24.01,0-.42,0-.76.34-.76.76,0,8.24,0,16.48,0,24.71,0,.42.34.76.76.76h8.13c.41,0,.74-.33.74-.74l.03-15.08c0-.42.34-.76.76-.77,3.52-.05,7,0,10.5.02.29,0,.56.16.71.41,5.29,9.04,9.13,15.6,9.24,15.79.01.03.06.1.13.17.14.13.32.21.52.21,3.06,0,6.14.05,9.19.01.39,0,.72-.31.74-.71.03-1.06-.02-2.15-.03-3.22,0-.15-.04-.29-.13-.41-3.01-4.41-6.02-8.83-9.03-13.24-.26-.39-.11-.91.31-1.1,1.31-.58,3.05-1.58,4.59-3.3,3.55-3.95,3.51-8.81,3.49-10.76-.01-1.85-.09-5.43-2.43-9.01-3.24-4.94-8.45-6.28-9.87-6.59-.05-.01-.1-.02-.15-.02-9.16,0-18.32,0-27.48,0-.41,0-.74.33-.74.74,0,2.73.01,5.46.02,8.19,0,.41.34.75.75.75Z"/>
      <rect class="cls-1" x="230.49" y="72.56" width="9.63" height="16.5" rx=".74" ry=".74"/>
      <path class="cls-1" d="m270.36,73.3v46.62c0,.41-.33.74-.74.74-2.72,0-5.43,0-8.15,0-.41,0-.74-.33-.74-.74,0-5.92,0-11.84,0-17.76,0-.41-.33-.74-.74-.74-6.38,0-12.76,0-19.14,0-.41,0-.74.33-.74.74,0,5.92,0,11.84,0,17.76,0,.41-.33.74-.74.74h-8.15c-.41,0-.74-.33-.74-.74v-27.39c0-.41.33-.74.74-.74h28.77c.41.02.74-.32.74-.73,0-5.93,0-11.85,0-17.78,0-.41.33-.74.74-.74h8.15c.41,0,.74.33.74.74Z"/>
      <path class="cls-1" d="m370.73,8.5c0,.34.22.64.55.73,1.09.28,2.48.75,3.99,1.56,1.28.7,4.05,2.24,6.06,5.53.44.72,2.07,3.52,2.17,7.5.03,1.35-.04,6.25-3.78,10.51-3,3.41-6.68,4.5-8.4,4.86-.35.07-.6.37-.6.73v7.55c0,.41.33.74.74.74h4.77c.42,0,.83-.06,1.23-.19,1.2-.39,2.66-.98,4.24-1.85,3.06-1.7,4.97-3.62,5.49-4.15,3.62-3.74,5.01-7.86,5.51-9.71.72-2.65.73-4.59.74-8.19.01-3.61,0-6.31-1.22-9.59-.18-.5-1.05-2.79-2.94-5.35-.57-.78-2.14-2.81-4.74-4.8-1.18-.9-3.42-2.59-6.79-3.64-.78-.24-1.47-.4-1.99-.51-.18-.04-.34-.05-.52-.05h-3.76c-.42,0-.76.34-.76.76v7.57Z"/>
      <path class="cls-1" d="m367.17,8.52c0,.33-.22.62-.54.71-1.09.28-2.49.75-4,1.57-1.28.7-4.05,2.24-6.06,5.53-.44.72-2.07,3.52-2.17,7.5-.03,1.35.04,6.25,3.78,10.51,3,3.41,6.68,4.5,8.4,4.86.35.07.6.37.6.73v7.55c0,.41-.33.74-.74.74h-4.65c-.54,0-1.07-.09-1.58-.27-1.16-.39-2.53-.96-4.01-1.78-3.06-1.7-4.97-3.62-5.49-4.15-3.62-3.74-5.01-7.86-5.51-9.71-.72-2.65-.73-4.59-.74-8.19-.01-3.61,0-6.31,1.22-9.59.18-.5,1.05-2.79,2.94-5.35.57-.78,2.14-2.81,4.74-4.8,1.18-.9,3.42-2.59,6.79-3.64.77-.24,1.45-.4,1.97-.5.19-.04.37-.05.56-.05h3.75c.42,0,.75.34.75.75v7.59Z"/>
    </g>
  </g>
</svg>