<?xml version="1.0" encoding="UTF-8"?>
<svg id="Layer_2" data-name="Layer 2" xmlns="http://www.w3.org/2000/svg" viewBox="0 0 4.02 3.58">
  <defs>
    <style>
      .cls-1 {
        fill: #fff;
      }
    </style>
  </defs>
  <g id="Layer_1-2" data-name="Layer 1">
    <path class="cls-1" d="m2.07.01l1.47.73s.04.03.06.06h0l.41.73c.04.07.01.15-.05.19,0,0,0,0-.02,0l-.32.16v.82c0,.06-.04.11-.09.13l-1.46.73s-.09.02-.12,0l-1.47-.73s-.08-.07-.08-.12h0v-.82l-.33-.17c-.07-.03-.1-.12-.06-.18h0s0,0,0,0l.41-.73s.04-.05.07-.06L1.95.01s.08-.02.12,0h0Zm-.14,3.23h0v-1.32l-.23.4s-.07.05-.11.03h0l-.91-.45v.72l1.25.62h0Zm0-1.77h0V.33L.79.9l1.14.57h0Zm.17-1.14h0v1.14l1.14-.57-1.14-.57h0Zm0,1.59h0v1.32l1.25-.62v-.72l-.91.45h0s-.09,0-.11-.03l-.23-.4h0Zm1.3-.92h0l-1.27.63.3.54,1.27-.64-.3-.54h0ZM.62,1.69h0l.98.49.3-.54-1.27-.63-.3.54.27.13s.02,0,.02.01h0Z"/>
  </g>
</svg>