<?xml version="1.0" encoding="UTF-8"?>
<svg id="Layer_2" data-name="Layer 2" xmlns="http://www.w3.org/2000/svg" viewBox="0 0 3.21 3.58">
  <defs>
    <style>
      .cls-1 {
        fill: #fff;
      }
    </style>
  </defs>
  <g id="Layer_1-2" data-name="Layer 1">
    <path class="cls-1" d="m1.67.01l1.47.73s.08.07.08.12h0v1.84c0,.06-.04.11-.09.13l-1.45.73s-.09.02-.12,0L.08,2.83S0,2.76,0,2.71h0V.87c0-.06.04-.11.09-.13L1.54.01S1.63,0,1.67.01h0Zm-.55.52h0l1.22.61.49-.24L1.6.29l-.49.24h0Zm-.73.37H.38l1.22.61.55-.28L.93.63l-.55.28H.38Zm-.11.13H.27v1.59l1.25.62v-1.59L.27,1.03H.27Zm1.41,2.21h0l1.25-.62v-1.59c-.42.21-.83.42-1.25.62v1.59h0Z"/>
  </g>
</svg>