<?xml version="1.0" encoding="utf-8"?>
<!-- Generator: Adobe Illustrator 27.4.1, SVG Export Plug-In . SVG Version: 6.00 Build 0)  -->
<svg version="1.1" id="Layer_1" xmlns="http://www.w3.org/2000/svg" xmlns:xlink="http://www.w3.org/1999/xlink" x="0px" y="0px"
	 viewBox="0 0 1440 38.5" style="enable-background:new 0 0 1440 38.5;" xml:space="preserve">
<path d="M0,21.6l10,2.9c10,2.9,30,8.6,50,5.8s40-14.5,60-15.1c20-0.7,40,9.3,60,9.4c20,0,40-10.1,60-15.1c20-5,40-5,60,0
	c20,5.1,40,15.1,60,15.9c20,0.7,40-7.9,60-13.7c20-5.7,40-8.7,60-3.6c20,5,40,18,60,24.5s40,6.5,60,2.2s40-13,60-17.3s40-4.3,60-2.9
	c20,1.4,40,4.4,60,7.9c20,3.6,40,7.9,60,5.8s40-10.8,60-13.7c20-2.9,40,0,60,5s40,12.3,60,15.9c20,3.6,40,3.6,60-2.9
	s40-19.5,60-20.2c20-0.8,40,10.9,60,16.6c20,5.8,40,5.8,60,7.2c20,1.4,40,4.4,60,0.7s40-13.7,60-17.3s40-0.7,50,0.7l10,1.4V0h-10
	c-10,0-30,0-50,0s-40,0-60,0s-40,0-60,0s-40,0-60,0s-40,0-60,0s-40,0-60,0s-40,0-60,0s-40,0-60,0s-40,0-60,0s-40,0-60,0s-40,0-60,0
	s-40,0-60,0s-40,0-60,0s-40,0-60,0s-40,0-60,0s-40,0-60,0s-40,0-60,0s-40,0-60,0s-40,0-60,0s-40,0-60,0s-40,0-60,0s-40,0-60,0
	S80,0,60,0S20,0,10,0H0V21.6z"/>
</svg>
